<svg width="13" height="13" viewBox="0 0 13 13" fill="none" xmlns="http://www.w3.org/2000/svg">
<path d="M12.1562 10.9922C12.2734 11.1094 12.2734 11.2969 12.1562 11.3906L11.6172 11.9297C11.5234 12.0469 11.3359 12.0469 11.2188 11.9297L8.38281 9.09375C8.33594 9.02344 8.3125 8.95312 8.3125 8.88281V8.57812C7.44531 9.30469 6.34375 9.75 5.125 9.75C2.42969 9.75 0.25 7.57031 0.25 4.875C0.25 2.20312 2.42969 0 5.125 0C7.79688 0 10 2.20312 10 4.875C10 6.09375 9.53125 7.21875 8.80469 8.0625H9.10938C9.17969 8.0625 9.25 8.10938 9.32031 8.15625L12.1562 10.9922ZM5.125 8.625C7.1875 8.625 8.875 6.96094 8.875 4.875C8.875 2.8125 7.1875 1.125 5.125 1.125C3.03906 1.125 1.375 2.8125 1.375 4.875C1.375 6.96094 3.03906 8.625 5.125 8.625Z" fill="black"/>
</svg>
